<svg xmlns="http://www.w3.org/2000/svg" version="1.0" viewBox="0 0 512 512"><g fill="#67a50f"><path d="m362.5 10.5-2.5 2.4v134.2l2.5 2.4 2.4 2.5h134.2l2.4-2.5 2.5-2.4V12.9l-2.5-2.4-2.4-2.5H364.9l-2.4 2.5zm45.5 35c0 21.6 0 21.6 2.5 24 3.2 3.2 5.5 3.1 14.4-.6l7.4-3.1 7 3.1c8.4 3.7 11 3.9 14.2.6 2.5-2.4 2.5-2.4 2.5-24V24h32v112H376V24h32v21.5zm32-7.6v13.9l-4-1.5c-3.6-1.5-4.4-1.5-8 0l-4 1.5V24h16v13.9zM230.1 41.6C177.1 48 125.7 75.7 91.7 116 61.8 151.5 45 192.6 40.5 241.2l-.7 6.8H27.4c-12.5 0-15.6.7-18.1 3.9-2.8 3.6-1.3 6.7 16.2 32.8 13.3 20 18.1 26.4 20 26.9 5.9 1.5 6.8.5 25-26.9 18.7-28.1 19.5-29.8 15-34.2-2.3-2.4-2.9-2.5-16-2.5H55.8l.7-6.8c3.6-36.4 14.4-67.9 33.2-95.9C135.3 77 217.5 43.5 297.9 60.5c6.3 1.4 11.6 2.3 11.8 2.1 1-1 4.2-14.1 3.5-14.8-1.2-1.2-24.9-5.6-36.1-6.8-13.6-1.3-32.9-1.1-47 .6zM56.8 276.5c-4.6 6.8-8.5 12.4-8.8 12.4-.3 0-4.2-5.6-8.8-12.4L31 264h34l-8.2 12.5z"/><path d="M228.7 120.5c-28.3 4.6-52.1 16.7-71.8 36.4-38.8 38.8-48.7 97-24.9 146.6 6.2 12.9 13.7 23.3 25 34.5 18.8 18.9 39.5 30 66 35.7 11.8 2.5 37.1 2.5 49.1-.1l8.7-1.8 6.3 5.2c26.4 21.3 62.4 19.6 86-3.9 23.5-23.6 25.2-59.6 3.9-86l-5.2-6.3 1.8-8.7c2.6-12 2.6-37.3.1-49.1-5.7-26.5-16.8-47.2-35.7-66-18.5-18.6-37.9-29.2-64-35.1-11.6-2.6-33.7-3.3-45.3-1.4zm45.7 18.9c5.5 1.4 10.4 3 10.9 3.5 1.5 1.5-14.9 2.6-37.3 2.6-21.4 0-38.4-1.1-37.5-2.5.6-1 14.6-4.8 22.2-6 10.3-1.6 30.6-.4 41.7 2.4zm-81.1 17.2c2 .4 3.7 1 3.7 1.4 0 .4-1.5 4-3.4 8.1-1.8 4.1-4.4 10.5-5.6 14.2l-2.2 6.9-3.7-.7c-7.2-1.2-22.1-5.8-22.1-6.7 0-4.1 24-25.3 27.5-24.3 1.1.3 3.7.8 5.8 1.1zm125.3 4.8c7.7 6.2 17.4 16.4 17.4 18.4 0 .9-14.9 5.5-22.1 6.7l-3.7.7-2.2-6.9c-1.2-3.7-3.8-10.1-5.6-14.2-1.9-4.1-3.4-7.7-3.4-8.1 0-.5 6.5-2.3 10.5-2.9.6 0 4.7 2.8 9.1 6.3zm-87.3.2 8.7.6v31.1l-10.2-.7c-11.9-.8-27-2.5-27.7-3.1-1-1.1 9-24.3 12.1-28.2.6-.8 2.5-1.1 4.7-.8 2 .2 7.5.7 12.4 1.1zm53.9 5.9c4.1 7.7 9.4 21.3 8.6 22.1-.7.6-14.2 2.1-27.5 3l-10.3.7v-31.1l8.8-.7c4.8-.3 9.6-.8 10.7-.9 5-.9 6-.1 9.7 6.9zm-130.1 28.1c2.4.8 9.3 2.8 15.3 4.4 5.9 1.6 11 3 11.1 3.2.1.2-.3 3.7-1.1 7.8-.7 4.1-1.6 12.3-2 18.2l-.7 10.8h-41.4l.9-6.8c1.2-9.4 5.3-23.4 9.3-32 1.9-3.9 3.6-7.2 3.8-7.2.3 0 2.4.7 4.8 1.6zm194.4 5.6c4 8.6 8.1 22.6 9.3 32l.9 6.8h-41.4l-.7-10.8c-.4-5.9-1.3-14.1-2.1-18.2-.7-4.1-1.2-7.6-1-7.8.1-.2 5.2-1.6 11.1-3.2 6-1.6 12.7-3.5 14.9-4.4 2.2-.8 4.4-1.5 4.8-1.5.4-.1 2.3 3.2 4.2 7.1zM222 208c6.3.5 13 1 14.8 1h3.2v31h-46.3l.6-9.3c.4-5 1.2-12.7 1.9-17.1l1.2-7.8 6.5.6c3.7.4 11.8 1.1 18.1 1.6zm77.9 5.7c.6 4.3 1.4 12 1.8 17l.6 9.3H256v-30.8l11.3-.7c6.1-.4 14.1-1.1 17.7-1.5 3.6-.4 8.1-.8 10.1-.9l3.5-.1 1.3 7.7zm-121.9 48c0 5.9 2.4 25.9 3.5 29.4.5 1.4 0 2-2.2 2.4-4.2.9-25.5 7.1-27.5 7.9-1.5.7-2.4-.5-5.3-6.5-4.2-9.1-8.2-22.8-9.3-32l-.8-6.9H178v5.7zm62 9.6v15.4l-17.2 1.3c-9.5.8-19.1 1.4-21.3 1.4l-4 .1-1.2-7c-.7-3.9-1.5-11.4-1.9-16.8l-.7-9.7H240v15.3zm62-8.9v6.4l-8.4 5.6c-4.5 3-10 7.4-12 9.7l-3.8 4.1-10.9-.7-10.9-.7V256h46v6.4zm57.6-4.7c-.2 1-.7 4.4-1.1 7.6-.6 5-.9 5.7-2.3 5.1-10.2-4.5-16.1-5.8-26.9-5.8l-11.3-.1V256h21.1c19.5 0 21 .1 20.5 1.7zm-20.1 23.8c19 5 33 20.7 35.8 40.1 3.5 23.8-12.1 46.7-35.8 52.9-25.1 6.5-51.3-9.4-58-35-8.9-34.3 23.7-66.9 58-58zM240 318.4v15.4l-9.7.7c-5.4.4-11.1.7-12.8.8-2.7.2-3.3-.4-6.2-5.8-3.3-6-9.3-20.6-9.3-22.4 0-1.4 17.4-3.5 32.8-4l5.2-.1v15.4zm26.6-14.8 2 .5-1.9 5.7c-1 3.1-2.1 9.9-2.4 14.9l-.6 9.3H256v-31h4.3c2.3 0 5.1.3 6.3.6zM188 315.7c1.3 3.8 3.8 10.1 5.6 14.2 1.9 4.1 3.4 7.7 3.4 8 0 .4-2.6 1.2-5.7 1.9l-5.7 1.2-5.5-4.2c-6.6-4.9-20.1-18.5-20.1-20.3 0-1 11-4.7 20.5-6.8 4.9-1.1 5.3-.8 7.5 6zm77.7 34.9c2.1.4 3.3 1.5 4.1 3.7.6 1.7 1.1 3.2.9 3.3-1.2 1.2-20.2 2.6-28.7 2.1-10.1-.6-29.3-4.6-31.3-6.6-.5-.5 3-1.2 9-1.6 5.4-.3 10.3-.8 10.8-1 1.7-.6 32.1-.5 35.2.1z"/><path d="M333.8 319.7 317 336.5l-5.8-5.8-5.8-5.7-5.7 5.8-5.7 5.7 9.3 9.3c14.1 14 11.5 14.8 37.3-10.9l21.4-21.3-5.2-5.3c-2.9-2.9-5.5-5.3-5.8-5.3-.3 0-8 7.5-17.2 16.7z"/><path d="M460.2 201.3c-3.5 2-36.2 51.6-36.2 55 0 1.6 1 3.8 2.5 5.2 2.3 2.4 2.9 2.5 16 2.5h13.6l-.7 6.7c-3.5 39-16.7 74.2-38.7 104-46.5 62.7-123.8 92.4-200.7 77.2-5.7-1.2-11.4-2.5-12.7-3-2.1-.8-2.4-.4-4.3 6-1.1 3.7-2 7.3-2 7.9 0 1.3 4.7 2.7 18 5.2 80.9 15.6 163.9-16.4 213.4-82.3 25-33.2 38.9-70.4 43.1-115l.7-6.7h13.4c13 0 13.6-.1 15.9-2.5 1.5-1.4 2.5-3.6 2.5-5.2 0-1.9-5.3-10.7-17.2-28.6-18.9-28.3-20.4-29.8-26.6-26.4zm12.6 34.2L481 248h-34l8.2-12.5c4.6-6.8 8.5-12.4 8.8-12.4.3 0 4.2 5.6 8.8 12.4zM10.5 362.5 8 364.9v134.2l2.5 2.4 2.4 2.5h134.2l2.4-2.5 2.5-2.4V364.9l-2.5-2.4-2.4-2.5H12.9l-2.4 2.5zm45.5 35c0 21.6 0 21.6 2.5 24 3.2 3.2 5.5 3.1 14.4-.6l7.4-3.1 7 3.1c8.4 3.7 11 3.9 14.2.6 2.5-2.4 2.5-2.4 2.5-24V376h32v112H24V376h32v21.5zm32-7.6v13.9l-4-1.5c-3.6-1.5-4.4-1.5-8 0l-4 1.5V376h16v13.9z"/></g></svg>