<svg xmlns="http://www.w3.org/2000/svg" version="1.0" viewBox="0 0 512 512"><g fill="#67a50f"><path d="m88.3 2.4-2.8 2.4-.3 42.4c-.2 23.2 0 44.3.3 46.8.6 4.3 1.8 5.7 30.8 34.6 16.6 16.5 32.9 32.1 36.2 34.5 18.6 14 38.4 21.7 61.8 23.9 6.1.6 11.3 1.2 11.5 1.5.2.2-4.4 11.1-10.2 24.2-5.8 13.1-10.6 25.1-10.6 26.6 0 4.8 3.6 7.1 19.3 12.3 11.9 3.9 15.1 4.6 17.3 3.9 2-.8 8.7-9.5 25.8-34l23.2-33 83.4-.5c82.1-.5 83.6-.5 88-2.6 10.1-4.7 17.1-16.9 15.5-27.2-1.3-8.6-4.5-12.9-23.7-31.7-22-21.7-32.8-29.3-50.3-35.3-14.8-5-18.8-5.4-60.7-5.9l-39.7-.5-19.7-31.7c-10.8-17.4-20.7-32.6-22.1-33.9-2.3-2.1-3.2-2.2-17.9-2.2h-15.6l-2.9 2.9c-1.6 1.6-2.9 3.9-2.9 5 0 1.2 3.2 14.7 7 30.1 3.8 15.4 7 28.4 7 29 0 .7-11.4 1-33.8 1h-33.8l-11.9-39.8C146.6 12.3 144.1 5 141.9 2.7L139.2 0h-24.1c-23.9 0-24 0-26.8 2.4zM140.1 50c5.4 17.9 9.9 33.1 9.9 33.7 0 1-5.4 1.3-24 1.3h-24V16.9l14.2.3 14.2.3 9.7 32.5zm127.1 9.5 15.7 25-14.1.3c-7.7.1-14.3 0-14.5-.2-.7-.7-12.2-46.8-12.3-48.9 0-1.5.7-1.8 4.8-1.5l4.7.3 15.7 25zm122.6 45.3c9.1 2.4 20.7 7.4 26.8 11.6l3.8 2.6-30.9.2-31 .3v17l41 .3 41 .2 8.8 8.8c4.9 4.8 9.5 10 10.3 11.5 1.9 3.6 1.1 7.7-2.2 10.8l-2.6 2.4-75.9.3-75.9.2 2-3.2c2.7-4.5 2.5-8.3-.5-11.3l-2.4-2.5h-28.6c-18.7 0-29.3.4-30.7 1.1-1.1.6-3.5 4.4-5.4 8.5l-3.3 7.4h-4.8c-15.4-.1-32.4-3.5-45.6-9.1-13.4-5.7-21.8-12.4-46.2-36.9l-23-23.1 133.5.4 133.5.3 8.3 2.2zm-130.4 98.4c-12.4 17.8-23 32.7-23.4 33.2-1.2 1.2-11.2-2.3-10.7-3.8 1.6-3.7 26.1-58.4 26.8-59.9.9-1.5 2.7-1.7 15.4-1.7h14.4l-22.5 32.2z"/><path d="M188 128v9.1l8.3-.3 8.2-.3v-17l-8.2-.3-8.3-.3v9.1zM222 128v9.1l8.3-.3 8.2-.3v-17l-8.2-.3-8.3-.3v9.1zM256 128v9h17v-18h-17v9zM290.4 120.3c-.3.8-.4 4.7-.2 8.8l.3 7.4 8.3.3 8.2.3V119h-8c-5.8 0-8.2.4-8.6 1.3zM324.4 120.3c-.3.8-.4 4.7-.2 8.8l.3 7.4 8.3.3 8.2.3V119h-8c-5.8 0-8.2.4-8.6 1.3zM88.3 241.4c-2.8 2.4-2.8 2.4-3.1 17l-.4 14.6H67.4c-20.3 0-22.7.7-24.3 6.8-.5 2-4.5 22.9-8.7 46.4L26.7 369 16 372.5c-5.8 1.9-11.6 4.2-12.7 5-4.8 3.3-4.4 4.8 12.5 52.2 8.8 24.7 16.3 45.6 16.7 46.5.5 1.3-.2 1.9-3.2 2.7-5.7 1.6-11.2 4.8-16.4 9.6-2.6 2.4-6.5 4.9-8.8 5.6L0 495.3v17l4.2-.7c6.5-1 13.8-4.8 19.7-10 10.2-9 16.4-8.9 26.6.5 10.3 9.5 25 12.2 36.6 6.8 3.1-1.5 8.1-4.9 11.2-7.7 9.2-8.3 16.2-8.3 25.4 0 3.1 2.8 8.1 6.2 11.2 7.7 11.6 5.4 26.3 2.7 36.6-6.8 10.2-9.4 16.8-9.5 26.4-.6 5.3 4.9 13.4 9.1 19.9 10.1l4.2.7v-17l-4.1-1.2c-2.3-.7-6-2.9-8.2-5-6.3-5.6-9.7-7.7-15.5-9.6-3-1-5.1-2.3-4.9-2.9 16.3-44.3 32.7-92.3 32.2-94.3-1-4.1-3.9-5.9-15.4-9.8-6.1-2-11.1-4-11.1-4.3-.1-3.3-16.1-88.3-17-90.3-2-4.3-4.7-4.9-23.5-4.9H137v-12.5c0-13.5-1.2-18.5-4.8-20.4-1.3-.7-9.5-1.1-21.6-1.1-19.2 0-19.5 0-22.3 2.4zm30.7 23.1v8.5h-17v-17h17v8.5zm51.1 61.5c3.8 20.9 6.1 36 5.5 36-.6 0-15.3-4.7-32.8-10.6L111 340.9l-33 11c-25.7 8.5-33 10.6-32.6 9.3.2-.9 3.3-17.3 6.7-36.5l6.3-34.7h105.2l6.5 36zM102 420.4v58.4l-4.4 2.1c-2.4 1.2-6.9 4.4-10 7.1-10 8.7-17.1 8.9-26.4.7-2.6-2.3-5.7-4.9-6.8-5.7-1.6-1.1-6.7-14.3-18.4-47.3-9-25.1-16.1-46-15.8-46.3.5-.5 79.6-27.2 81.1-27.3.4-.1.7 26.2.7 58.3zm59.3-44.8c33.7 11.2 40.8 13.9 40.4 15.3-.2.9-7.5 21.4-16.1 45.6l-15.7 44-5.7 5.3c-12 11.2-18.8 11.7-29.3 2.6-3.5-3-8.5-6.5-11.1-7.7l-4.8-2.2v-58.2c0-32.1.3-58.3.7-58.3.5 0 19.2 6.1 41.6 13.6z"/><path d="M77 315.5v8.5h68v-17H77v8.5zM241.6 318.6l-2.6 2.7v159.8l2.5 2.4c2.4 2.5 2.5 2.5 21.8 2.5h19.3l2.3 5.5c2.9 7.1 9.6 13.9 16.9 17.3 7.1 3.3 17.8 3.7 25.9.9 7.2-2.5 14.5-9.3 18.4-17.3l3.2-6.4h61.3l2.3 5.5c2.9 7.1 9.6 13.9 16.9 17.3 7.1 3.3 17.8 3.7 25.9.9 7.2-2.5 14.5-9.3 18.4-17.3l3.2-6.4h14.3c7.8 0 15-.3 15.9-.6 4.2-1.6 4.5-4.6 4.5-41.9V408l-14-28c-8.1-16.3-14.8-28.3-15.9-29-1.2-.6-11.9-1-28.5-1h-26.5l-.3-14.4c-.3-13.7-.4-14.6-2.7-17l-2.4-2.6H244.3l-2.7 2.6zM410 401v68h-61.8l-.6-2.6c-1.9-7.5-11.5-17.1-20.5-20.5-7.4-2.8-18.3-2.3-25.6 1.2-6.5 3.1-13.6 10.2-16.6 16.7l-2.4 5.2H256V333h154v68zm34-11v23.1l2.6 2.4 2.7 2.5H495v51h-9.4c-9.3 0-9.4 0-10-2.6-1.9-7.4-11.5-17.1-20.2-20.4-8.5-3.1-16.9-2.7-26.6 1.5-1.7.7-1.8-1.6-1.8-39.9V367h17v23zm36.8-6.5c4.5 9.1 8.2 16.7 8.2 17 0 .3-6.3.5-14 .5h-14v-34h11.5l8.3 16.5zm-158.5 78.9c1.8.7 4.7 2.9 6.4 4.9 11.9 13.5-4.8 34-20.7 25.5-6.4-3.4-9.2-8.6-8.7-16 .7-11.9 12-19 23-14.4zm128 0c1.8.7 4.7 2.9 6.4 4.9 11.9 13.5-4.8 34-20.7 25.5-6.4-3.4-9.2-8.6-8.7-16 .7-11.9 12-19 23-14.4z"/></g></svg>