<svg xmlns="http://www.w3.org/2000/svg" version="1.0" viewBox="0 0 512 512"><g fill="#67a50f"><path d="M33.5 2.5C31 4.9 31 5.1 31 23s0 18.1 2.5 20.5l2.4 2.5H155v21.8l-3.2 1.3c-5.5 2.3-18.1 15.6-21.7 22.9-13.2 27.2-3 58.5 23.5 71.9 25 12.6 54.9 5 69.4-17.7l4.5-7.1h15.1c16.7-.1 18.6-.7 20-6.3.5-2.2 0-3.3-2.4-5.8l-3-3H232v-16h94v16h-19.9c-19.5 0-20.1.1-22.7 2.3-3.5 3.1-3.8 8.2-.5 10.9 2.1 1.6 4.4 1.8 22.7 1.8H326v12.9c0 11.4.2 13.1 2 15.4 1.7 2.2 3 2.7 7.8 2.9l5.7.3.3 11.4.3 11.3-4.5 4.8c-2.4 2.6-5.4 6.6-6.5 8.8-2.6 5.1-5.1 14.5-5.1 19.1 0 3.1-1.4 4.9-14.3 18-11.2 11.4-14.6 15.5-15.5 18.7-1.7 5.7-1.5 27.6.2 34.2 2 7.4 5.6 13.1 12.1 19 6.5 6 14.2 9.2 22.7 9.5 5.2.2 6.2-.1 7.9-2.2 1.7-2.1 1.9-4.1 1.9-22.8v-20.5l8.2-8.4 8.2-8.4h14.1l8.3 8.3 8.2 8.2v20.2c0 19.9 0 20.2 2.4 23 2.2 2.5 3 2.8 7.9 2.6 11.4-.5 22.2-6.6 29-16.3 5.6-8.1 6.7-13 6.7-30.2 0-13.2-.2-15.4-2.1-19.1-1.2-2.3-8.2-10.3-15.5-17.7-12.8-13-13.4-13.8-13.4-17.7 0-8.7-7.8-25.5-13.1-28.4-1.7-.9-1.9-2.2-1.9-13.4V170h5.5c4.2 0 6-.5 7.6-2.1 2-2 2-2.8 1.7-39.7l-.3-37.7-3.2-6.6c-14.7-29.9-59.1-27.9-70.4 3l-2.2 6.1h-99.4l-3.7-5.9c-4-6.5-11.5-13.8-18.3-17.8l-4.3-2.5V46h275.1l2.4-2.5c2.5-2.4 2.5-2.6 2.5-20.5s0-18.1-2.5-20.5L476.1 0H35.9l-2.4 2.5zM466 23v8H46V15h420v8zM186 54.2v8.3l-7.7-.2-7.8-.2-.3-8-.3-8.1H186v8.2zm1.5 24.3c11.1 2.9 21.3 11.6 26.3 22.3 2.4 5 2.7 7 2.7 15.7 0 8.8-.3 10.7-2.7 15.7-3.7 7.9-10.8 15.2-18.5 19-16.8 8.2-38.5 2.7-49-12.5-8.2-12.1-8.6-31.3-.8-43.7 3-4.8 10.8-11.8 15.3-13.7 9.8-4.2 17.8-5.1 26.7-2.8zm189.4 2.2c2.7 1.7 5.8 4.8 7.6 7.7l3 4.9.3 30.9.3 30.8H341v-27.8c0-29.6.5-33.2 4.8-39.3 7.6-10.6 20.7-13.6 31.1-7.2zm-4.1 97.9.3 8.1H365l-8-.1V169.9l7.8.3 7.7.3.3 8.1zm3 26c8.7 4.3 13.3 13.9 11.9 24.6-.7 5.2-5 11.3-10.6 15.3-3.9 2.8-4.9 3-12.6 3-7.7 0-8.7-.2-12.6-3-2.4-1.7-5.7-5.3-7.4-8-7-11.3-1.9-27.5 10.5-32.9 5.7-2.5 14.7-2 20.8 1zm-38.9 46.6 5.4 5.8-6.9 7.3c-4.6 4.8-7.4 8.6-8.2 11.3-.7 2.5-1.2 10.1-1.2 18.8 0 8-.2 14.6-.5 14.6-1.9 0-6.8-3.5-9.7-7-4.7-5.5-5.8-9.8-5.8-23.5v-11.8l10.7-10.8c5.9-6 10.7-10.8 10.8-10.6.1.1 2.5 2.8 5.4 5.9zm82.1 28.3c0 12.2-.2 13.5-2.6 18.4-1.9 3.8-4 6.2-7.2 8.2-2.5 1.6-5 2.9-5.4 2.9-.4 0-.8-7.2-.8-16 0-18.8-.6-20.6-10.1-30.5l-5.7-6 4.9-4.9c2.7-2.7 4.9-5.4 4.9-6 0-.6 5 3.9 11 9.9l11 11v13z"/><path d="M171.5 94.2c-2.5.7-5.8 3-9.1 6.3-4.2 4.2-5.4 6.1-6.4 10.7-4.5 19.8 17.2 34.9 34.7 24.2 11.6-7 13.9-24.9 4.5-34.7-5.8-6.1-15.5-8.8-23.7-6.5zm12.8 16.9c3.9 4.7.5 12.9-5.4 12.9-4.1 0-5.8-.9-7.5-4.1-1.8-3.7-1-7.3 2.4-10 3.2-2.5 7.8-2 10.5 1.2zM361.2 94.2c-3.5 1.8-4.4 6.8-4 24.6.3 15.8.4 16.4 2.7 18.3 3 2.5 7.6 2.4 10.1-.1 1.9-1.9 2-3.3 2-20.9v-19l-2.6-2c-2.9-2.3-4.8-2.5-8.2-.9zM111 344c-1.9 1.9-2 3.3-2 28s.1 26.1 2 28c3 3 8.3 2.7 10.9-.6 2-2.5 2.1-4 2.1-22.5V357h24v21c0 19.7.1 21.1 2 23 1.9 1.9 3.3 2 28.5 2 25.9 0 26.5 0 28.5-2.2 1.9-2 2-3.4 2-23V357h24v109H124v-19.5c0-22.1-.6-24.8-6.1-26-2.3-.5-3.8-.2-5.8 1.3l-2.6 1.9-.3 21.2-.2 21.1H35.9l-2.4 2.5C31 470.9 31 471.1 31 489s0 18.1 2.5 20.5l2.4 2.5h440.2l2.4-2.5c2.5-2.4 2.5-2.6 2.5-20.3 0-24.6 2.2-22.6-25.2-23.2l-21.3-.5-.2-28.5c-.3-27.6-.4-28.6-2.4-30.3-2.8-2.2-7.1-2.2-10 .2l-2.4 1.9-.3 28.6-.3 28.6H310V357h24v20.4c0 19.1.1 20.5 2.1 23l2 2.6h26.8c26 0 26.8-.1 28.7-2.1 1.7-1.9 1.9-4.1 2.2-23l.3-20.9H419v10.2c0 13.1 1.1 17.2 4.9 18.8 3.2 1.3 6.2.7 8.6-1.6 1.2-1.3 1.5-4.9 1.5-20 0-17.1-.1-18.5-2-20.4-2-2-3.3-2-67.3-2-65.2 0-65.4 0-67.3 2.1-1.8 2-1.9 4.7-2.2 62L295 466h-47v-59.4c0-58.5 0-59.4-2.1-62l-2-2.6h-65.5c-64.1 0-65.4 0-67.4 2zm83 28.5V388h-31v-31h31v15.5zm187 0V388h-32v-31h32v15.5zM466 489v8H46v-16h420v8z"/></g></svg>