<svg xmlns="http://www.w3.org/2000/svg" version="1.0" viewBox="0 0 512 512"><g fill="#67a50f"><path d="M99.4 1.5C77 6.4 59.2 22.1 51.2 44.2l-2.7 7.3-.3 185.3L48 422l-12.8 6.4c-13.1 6.6-16.3 9-18.1 13.9-.7 1.8-1.1 13.1-1.1 29.6 0 26 .1 26.9 2.3 31.1 1.6 3 3.7 5.1 6.7 6.7l4.3 2.3 180.3-.2 180.3-.3 2.7-2.1c1.5-1.1 3.7-3.3 4.8-4.8 2-2.6 2.1-4.3 2.4-29.9.2-15 0-28.6-.3-30.4-1-5.6-5.1-9.1-18.6-15.9L368 422V308.5c0-62.4.4-113.5.8-113.5.5 0 3.5 1.7 6.8 3.8 9.9 6.5 17.7 16.1 22.1 27.2 1.6 4.1 1.8 10.9 2.3 78 .5 70.4.6 73.7 2.6 79 7.2 19.9 24.7 32.3 45.4 32.3s38.1-12.4 45.5-32.3c2-5.4 2-7.6 2.3-131 .2-85.6 0-126.6-.7-129.1-.6-2-2.3-4.9-3.8-6.4-1.6-1.5-18-10.3-36.6-19.6-36.2-18.1-38.1-18.7-45.3-15.3-4.9 2.3-7.7 6.8-8.2 12.9-.8 9.6 2.6 13.1 21.5 22.4 10.7 5.2 11 5.5 10.3 8-.4 1.5-.3 5.6.1 9.1 1.8 13.2 11.7 27.4 24.9 35.6l6 3.7v198.2l-2.3 4c-2.4 4.3-9.1 8.5-13.7 8.5-4.2 0-11.3-4.2-13.5-8-1.9-3.4-2-5.5-2.5-76.5l-.5-73-2.4-7c-6.7-19.9-19-36-36.3-47.2-6.6-4.2-20.2-10.3-23.2-10.3-1.3 0-1.5-6.4-1.8-55.3-.3-50.3-.5-55.7-2.2-60.7-3.4-10.1-8-18.2-14.4-25.1-7.9-8.5-16.4-14.2-26.7-17.7l-8-2.7L211 .3C126 .2 104.3.4 99.4 1.5zm218.8 33.8c6.5 3.2 12.1 8.9 15.2 15.6l2.1 4.6.5 190.5c.5 189.3.5 190.5 2.5 194 1.7 2.9 4.6 4.8 15.8 10.5l13.7 7V480H48v-22.5l13.7-7c11.2-5.7 14.1-7.6 15.8-10.5 2-3.5 2-4.7 2.5-193.5l.5-190 2.3-5c4-8.7 12.2-15.7 21.2-18.1 3.4-1 28.1-1.2 106.5-1.1l102 .2 5.7 2.8z"/><path d="M121.5 81.4c-4.1 1.8-8.3 6.9-9 10.9-.3 1.8-.5 33.4-.3 70.4.3 66 .3 67.2 2.4 69.9 1.1 1.5 3.3 3.7 4.8 4.8 2.7 2.1 3.4 2.1 88.6 2.1 85.2 0 85.9 0 88.6-2.1 1.5-1.1 3.7-3.3 4.8-4.8 2.1-2.7 2.1-3.6 2.1-72.6s0-69.9-2.1-72.6c-1.1-1.5-3.3-3.7-4.8-4.8-2.7-2.1-3.6-2.1-87.4-2.3-68.9-.2-85.3 0-87.7 1.1zM272 160v48H144v-96h128v48z"/></g></svg>