<svg xmlns="http://www.w3.org/2000/svg" version="1.0" viewBox="0 0 512 512"><g fill="#7ac315"><path d="M237 15.9c-35.2 7.7-61.7 33.9-70.7 69.9-2.6 10.2-2.3 31.2.5 42.2 3 11.6 10.8 27 17.9 35.5l5.8 7 .5-17.5c.6-19.7 1.7-24.4 8-32.7 5.9-7.9 13.7-12.5 26.6-15.8.7-.2-.2-3.1-2.3-7.2-4.7-9.6-7-22.4-5.4-31.6 2.1-12.6 9.2-22.8 19.8-28.5 23.9-12.6 51.9 1.5 56.4 28.5 1.6 9.2-.7 22-5.4 31.6-2.1 4.1-3 7-2.3 7.2 12.9 3.3 20.7 7.9 26.6 15.8 6.3 8.3 7.4 13 8 32.7l.5 17.5 5.8-7c7-8.5 15-24.2 17.7-35 12.3-48.8-17.1-98.7-65.7-111.6-11.3-3-31-3.5-42.3-1z"/><path d="M250.3 49.1c-6.6 1.5-13.9 8.7-15.9 15.7-3.8 12.8 3.7 32.6 14 37.3 11.8 5.4 23.6-2.1 28.3-18 2.2-7.6 2.2-17.6 0-22.2-5-10.1-15.6-15.2-26.4-12.8zM225 120.9c-7.8 2.5-15.1 9.3-16.9 15.8-.6 2.1-1.1 13.3-1.1 25.4v21.7l6.8 3.5c26.6 13.9 58.8 13.7 85.5-.5l5.7-3.1V162c0-24.3-.7-28-6.3-33.8-1.8-1.9-5-4.3-7.2-5.5-3.8-2.1-5.3-2.2-34-2.4-16.5-.1-31.1.2-32.5.6zM192.5 212.5c-3.4 3.3-3.2 7 .4 10.6l3 2.9 60.1-.2 60.2-.3 2.5-2.9c2.9-3.5 2.6-8-.8-10.9-2-1.6-6.5-1.7-62.6-1.7h-60.4l-2.4 2.5zM252.5 238.2c-3.9 2.2-4.4 4.1-4.5 14v9.8h-83.5c-82.2 0-83.5 0-85.5 2-1.9 1.9-2 3.3-2 22s.1 20.1 2 22c2.1 2.1 6.9 2.6 10 1 2.9-1.6 4-6.6 4-19.1V278h155v13.4c0 12 .2 13.6 2.1 16 2.9 3.7 8.9 3.7 11.8 0 1.9-2.4 2.1-4 2.1-16V278h155v11.9c0 12.5 1.1 17.5 4 19.1 3.1 1.6 7.9 1.1 10-1 1.9-1.9 2-3.3 2-21.8 0-19.5 0-19.9-2.3-22l-2.3-2.2H264v-9.4c0-11.1-.3-12.2-4.1-14.1-3.3-1.8-4.7-1.8-7.4-.3zM69.5 328.5c-22.4 5.1-39.7 19.1-49.6 40-9.3 19.8-9.1 41 .6 61.1 2.4 5 6.4 11.3 8.9 14l4.5 4.9.1-8.8c0-9.4 1.2-13.4 5.7-20 3-4.4 9.5-9.2 15.1-11.1 4.2-1.5 4.2-1.7 1.1-10.1-3.3-9-3.2-20.2.2-27.6 7.4-15.7 25.7-22.8 40.9-15.8 7.7 3.6 11.1 6.8 15.1 14.1 3.1 5.9 3.4 6.9 3.3 15.3 0 6.8-.6 10.5-2.3 15-1.2 3.3-2.3 6.4-2.4 6.8-.1.5 1.9 1.6 4.4 2.6 9 3.5 16.1 10.8 18.9 19.6.7 2.2 1.6 7.5 1.9 11.8l.6 7.8 4.3-5.6c22.1-28.4 19.7-69.1-5.8-94.5-7.9-7.9-17.6-13.9-28.5-17.6-9.8-3.3-27.2-4.2-37-1.9zM243.1 328c-28.7 6.1-49.2 25.6-56.6 54-2.2 8.3-2.2 25.2 0 33.5 2.2 8.4 8.4 21 13.6 27.5l4.4 5.5.6-9.5c.7-11.1 3.3-17.4 9.8-23.3 4.3-3.9 11-7.7 13.6-7.7 2 0 1.9-.9-.7-7.2-1.8-4.3-2.2-7.4-2.2-15.8-.1-9.8.1-10.8 2.8-15.8 12.2-21.9 43-21.9 55.2 0 2.7 5 2.9 6 2.8 15.8 0 8.4-.4 11.5-2.2 15.8-2.6 6.3-2.7 7.2-.7 7.2 2.6 0 9.3 3.8 13.6 7.7 6.5 5.9 9.1 12.2 9.8 23.3l.6 9.5 4.3-5.5c10-12.5 15.5-28.2 15.5-44.5 0-19.4-7-36.2-20.8-50.1-13.7-13.9-28.5-20.3-48-21-6-.2-13 .1-15.4.6zM412.5 328.4c-14.3 3.3-25.8 9.7-36 20.1-8.4 8.6-12.7 15.5-16.8 27.2-3 8.3-3.2 9.7-3.1 22.8 0 12.7.2 14.7 2.7 22 3 8.4 8.6 18.7 13.6 24.5l3 3.5.1-6c0-16.4 7.6-28.4 20.9-33.6 2.5-1 4.5-2.1 4.4-2.6-.1-.4-1.2-3.5-2.4-6.8-3.4-9-3.3-21.1.2-28.6 9-19.2 33.3-24.3 48.8-10.3 12 10.7 13.9 25.8 5.6 44.6-.5 1.3-.2 2 1.1 2.4 9.7 3.3 17.2 9.7 21 17.7 1.9 4.2 2.4 6.8 2.4 13.9 0 4.9.3 8.8.8 8.8 1.2-.1 7.4-8.5 11-14.7 1.7-3.2 4.4-9.4 5.9-13.8 2.2-6.9 2.6-9.8 2.7-20.5.1-10.4-.3-13.7-2.3-20-7.6-24.7-26-43-49.7-49.6-8-2.2-26.2-2.7-33.9-1z"/><path d="M78 370.2c-6 3-9.4 9.3-8.6 15.7 1 7.7 2.9 12.4 6.7 16.3 3.1 3.3 4.2 3.8 8.2 3.8 8.1 0 13.9-7.2 15.3-19.1.8-6.8-1.1-11.6-5.8-15.2-5-3.8-10.3-4.3-15.8-1.5zM251.6 369c-3.4 1.1-7.3 4.5-9.2 8.2-3.3 6.3-.6 19.6 5.2 25.3 3 3.1 4.1 3.5 8.4 3.5 4.3 0 5.4-.4 8.4-3.5 4-4 6.6-11.3 6.6-18.5 0-10.2-10-17.9-19.4-15zM422.7 369.4c-7.8 2.8-11.3 8.8-10.3 17.4 1.4 12 7.2 19.2 15.3 19.2 4 0 5.1-.5 8.2-3.8 3.8-3.9 5.7-8.6 6.7-16.3 1.4-11.1-9.6-20.2-19.9-16.5zM58 424.8c-1.9.9-4.5 3.2-5.7 5.1-2.1 3.1-2.3 4.5-2.3 17.2V461l3.8 1.9c17.3 8.8 41.4 9.2 59.5.8l6.9-3.1-.4-13.7c-.3-15.2-1-17-7.8-21.7-3.2-2.1-4.1-2.2-26.9-2.2-20.5 0-24.1.2-27.1 1.8zM228.4 425.5c-6.3 3.8-7.4 7-7.4 22.4V461l3.8 1.9c9.2 4.7 18.1 6.6 31.2 6.6 13.1 0 22-1.9 31.3-6.7l3.8-1.9-.3-14.2c-.3-15.9-1-17.7-7.9-21.6-3.4-2-5.2-2.1-27-2.1-23.1 0-23.5 0-27.5 2.5zM400 425.2c-6.8 4.7-7.5 6.5-7.8 21.7l-.4 13.7 6.9 3.1c17.6 8.1 39.6 8.2 57 .3l6.3-2.9v-13.9c0-12.8-.2-14.2-2.3-17.3-4.3-6.5-6.4-6.9-32.8-6.9-22.8 0-23.7.1-26.9 2.2zM36.6 484.1c-3.7 2.9-3.7 8.9 0 11.8 2.6 2.1 3.7 2.1 48.4 2.1h45.7l2.3-2.5c3.3-3.5 3.1-8.1-.4-11.2l-2.7-2.3H84.6c-44.3 0-45.4 0-48 2.1zM207.5 484.5c-1.6 1.5-2.5 3.6-2.5 5.5s.9 4 2.5 5.5l2.4 2.5h92.2l2.4-2.5c1.6-1.5 2.5-3.6 2.5-5.5s-.9-4-2.5-5.5l-2.4-2.5h-92.2l-2.4 2.5zM379.4 484.3c-3.5 3.1-3.7 7.7-.4 11.2l2.3 2.5H427c44.7 0 45.8 0 48.4-2.1 3.7-2.9 3.7-8.9 0-11.8-2.6-2.1-3.7-2.1-48-2.1h-45.3l-2.7 2.3z"/></g></svg>