<svg xmlns="http://www.w3.org/2000/svg" version="1.0" viewBox="0 0 512 512"><g fill="#7ac315"><path d="M27.2 61.3C13.4 75.1 2 86.8 2 87.3c0 .4 10.8.7 23.9.7 20.4 0 24.2-.2 25.5-1.6 1.4-1.3 1.6-5.1 1.6-26C53 47 52.9 36 52.7 36c-.1 0-11.6 11.4-25.5 25.3z"/><path d="M67 61.2c0 22.4-.3 25.8-1.9 29.3-2.2 5-6.9 9.1-11.9 10.5-2.1.5-14.4 1-27.9 1H1v343h112c61.6 0 112-.2 112-.6 0-.3-1.7-3.1-3.9-6.2-21-31-25.3-70.9-11.5-106.6 16-41.3 50.5-68.4 94.7-74.1l4.7-.6V36H67v25.2zm28.4 70.9 2.6 2v52.8l-2.6 2c-2.5 2-3.9 2.1-27.9 2.1-23.4 0-25.5-.1-27.6-1.9-2.4-1.9-2.4-2-2.7-28l-.3-26.1 2.5-2.5 2.5-2.5h25.4c24.2 0 25.6.1 28.1 2.1zm99.5 6.3c2.3 2.1 2.8 7.4 1.1 10.6-1.8 3.4-7.5 4-39.5 4s-37.7-.6-39.5-4c-2.3-4.3-.6-10.4 3.3-12 1.2-.5 18-.8 37.3-.7 33 .2 35.3.3 37.3 2.1zm55.7 32.9c3 3.6 3 6.8 0 10.4l-2.4 2.8-60.9.3c-33.4.2-62.3 0-64.1-.3-5.9-1.1-8.7-6.3-6.6-12 1.7-4.3 3.6-4.5 69.2-4.2l62.4.2 2.4 2.8zM95.7 221.2c2.3 2.1 2.3 2.3 2.3 28.4v26.3l-2.6 2c-2.5 2-3.9 2.1-27.8 2.1-18.1-.1-25.5-.4-26.7-1.3-3.6-2.7-3.9-5.2-3.9-30.2v-24.6l2.5-2.4 2.4-2.5h25.7c25.1 0 25.8.1 28.1 2.2zm98.1 5.4c1.3.9 2.7 2.7 3.2 4 1.1 2.9-.5 8.1-3 9.4-1.1.6-16.3 1-37.9 1-34.8 0-36.2-.1-38.1-2-3.9-3.9-2.2-11.4 3-13.3.8-.3 17-.6 36-.6 30.2-.1 34.8.1 36.8 1.5zm54.5 31.5c4.7 2.1 6 8 2.6 12.3l-2 2.6h-64.5c-63.1 0-64.4 0-66.4-2-3.5-3.5-2.2-11.2 2.3-13 3.4-1.3 125.1-1.2 128 .1zM95.7 310.2c2.3 2.1 2.3 2.3 2.3 28v25.9l-2.5 2.4-2.4 2.5H68.6c-15.8 0-25.4-.4-26.9-1.1-4.3-2-4.7-4.5-4.7-30.5v-24.5l2.5-2.4 2.4-2.5h25.7c25.1 0 25.8.1 28.1 2.2zm98.7 5.9c3.3 2.6 3.7 8.8.6 11.9-1.9 1.9-3.3 2-38.5 2s-36.6-.1-38.5-2c-3.1-3.1-2.7-9.3.6-11.9 2.6-2 3.8-2.1 37.9-2.1s35.3.1 37.9 2.1zm-7.9 32.4c3.1 3 3.2 7.3.4 10.9l-2 2.6h-32.5c-31.1 0-32.5-.1-34.4-2-3.1-3.1-2.7-9.3.6-11.9 2.6-2 3.8-2.1 34.1-2.1h31.4l2.4 2.5z"/><path d="M53 160.5V175h29v-29H53v14.5zM53 249.5V264h29v-29H53v14.5zM53.2 338.2l.3 14.3 14.3.3 14.2.3V324H52.9l.3 14.2zM465 253.1c-11.8 6.6-22.2 12.7-23.1 13.5-1 .9-2.5 5.9-3.8 12.7-1.2 6.2-2.4 12-2.7 12.9-.3 1-8 6.2-17.1 11.7l-16.6 9.9-2.5-3.1c-12.5-15.6-27.5-26.8-44.6-33.2-12.3-4.6-19.9-5.8-36.1-5.8-12.8 0-16.4.4-24.6 2.6-21.2 5.6-37 14.7-51 29.5-9.1 9.6-14.8 18.3-19.6 30.2-5.9 14.3-6.8 19.8-6.8 39.5 0 20.8 1.3 27 9 43.4 7.6 15.8 17.3 27.6 32 38.7 30.6 22.9 69.2 26.6 103.8 10 49.3-23.6 71.8-79.3 52-128.9-1.9-4.9-3.3-9-3.1-9.1.1-.1 7.9-4.8 17.2-10.4l16.9-10.2H471l14.3-9.7c26.5-18 27.4-18.9 24.7-25.4-1.6-3.9-3.1-4.5-11.5-5.4-3.8-.4-7.3-.9-7.7-1.2-.4-.2.8-3.5 2.7-7.3 1.9-3.8 3.5-7.9 3.5-9.1 0-2.8-5.3-7.9-8.2-7.9-1.3.1-12 5.5-23.8 12.1zm8 25.1c1.2 1 3.3 1.8 4.6 1.8 1.3 0 2.4.3 2.4.7-.1.5-3.2 2.9-7 5.5-6.7 4.6-7.2 4.8-14 4.8-6.3 0-7.1-.2-6.6-1.8.3-.9.8-3.5 1.2-5.7 1-5.8 1.4-6.3 9-10.6l6.9-3.8.6 3.6c.4 2 1.7 4.5 2.9 5.5zm-137 28.3c13.1 3.4 27.2 11.9 34 20.5l3.1 3.9-7 4.1-7 4.1-4.1-4c-8.9-8.7-20.1-13.7-32.5-14.7-25.1-2.1-49.5 15.3-56 39.7-3.1 11.6-.8 27.9 5.7 40.2 10.7 20 34.6 29.8 58 23.8 30.7-7.9 46.7-34.5 38.9-64.4l-1.7-6.7 6.8-4 6.9-4 1.5 3.6c5.4 12.9 5.9 32.6 1.1 46.2-8.2 23-26.1 40-48.7 45.9-8.7 2.3-25.3 2.2-34-.1-25.4-6.9-45-27.1-50.6-52.4-3.6-16-.2-36.5 8.3-51.2 4.6-7.9 14.9-18.3 22.5-22.8 6.8-4 17.7-7.9 25.6-9.2 7.7-1.2 21.4-.5 29.2 1.5zm-7.9 33.1c5.1 1.5 14.9 7.1 14.9 8.6 0 .4-3.1 2.5-6.8 4.8l-6.8 4-4.8-1.6c-15-5.1-28.2 6.9-25.2 23.1.8 4.3 5.9 10.3 10.3 12.1 4.2 1.8 12.5 1.8 16.6 0 6.2-2.6 10.7-9.3 10.7-15.9 0-2.9.7-3.6 7.1-7.6 3.9-2.3 7.3-4 7.6-3.7 1.3 1.3 1.9 11.1 1.1 15.9-2.1 11.2-10.2 21.7-20.6 26.5-4.7 2.2-7.1 2.6-13.7 2.6-10.9-.1-18.2-2.9-25.3-10-11.5-11.6-13.8-28-6-42.7 4-7.4 10.1-12.5 18.7-15.4 7.8-2.7 14.7-2.9 22.2-.7z"/></g></svg>