<svg xmlns="http://www.w3.org/2000/svg" version="1.0" viewBox="0 0 512 512"><g fill="#7ac315"><path d="M201.4 2c-3.7 1.5-4.6 5.7-4.2 21.5.3 14 .4 14.8 2.7 16.6 3.2 2.6 8.2 2.5 10.9-.4 2.1-2.2 2.2-3.3 2.2-18.4V5.1l-2.6-2c-2.8-2.2-5.5-2.5-9-1.1zM70.2 56.6c-3.4 2.4-4.4 5.9-2.8 9.7.7 1.8 5.9 7.6 11.4 12.9C87.2 87.3 89.4 89 92 89c4.2 0 8-3.9 8-8.3 0-2.9-1.4-4.7-11.3-14.5-12-11.8-14-12.8-18.5-9.6zM322.8 64.7c-10.8 10.5-13.3 14.2-12.4 17.9.9 3.5 4.6 6.4 8 6.4 2.5 0 4.9-1.9 14.3-11.3C342.5 67.9 344 66 344 63.2c0-4.3-3.8-8.2-8-8.2-2.6 0-4.8 1.7-13.2 9.7zM187.5 76.4c-18.1 3.1-32.4 8.5-46.7 17.8-43.6 28.5-64.6 84.7-50.1 134.7 5.5 19.2 14.5 33.9 32.6 52.8 6.7 7 13.8 15.3 15.8 18.3 8.7 13.2 14.2 27.4 16.3 42.4l1.2 8.1 48.6.3 48.6.2 1.1-7.9c2.7-18.4 10.4-36.8 20.5-49.2l5.3-6.6-7.4-9.9c-4.1-5.4-7.8-10.2-8.2-10.7-.4-.4-18-4.1-39.2-8.2-21.1-4.2-41.3-8.2-44.9-9-7.2-1.6-10-4-10-8.5 0-1.5.8-3.7 1.8-4.8.9-1.1 12.1-7.4 24.7-14 12.7-6.6 34.5-17.9 48.5-25.2 14-7.3 35.9-18.7 48.5-25.2 12.7-6.6 23.4-12.4 23.9-12.8 1-1-2.1-9.4-6.8-18.7-12.8-25.2-36.9-46.9-63.6-57.3-17.5-6.7-43.1-9.5-60.5-6.6z"/><path d="M462 100.1c-19.5 10.5-60.9 32.7-92 49.4-57.9 31-111.1 59.2-146.5 77.5-17.1 8.9-19.6 10.5-17.5 11.1 1.4.4 15.8 3.3 32 6.5l29.6 5.8 38.9-26.1c21.5-14.3 56.5-37.8 77.9-52.2 39.6-26.5 41.8-27.7 46.5-25.1 2.7 1.4 4.4 6.1 3.2 9.1-.5 1.3-18.3 26.9-39.4 56.9-21.1 30-38.3 54.6-38.2 54.8.3.4 80 16 80.3 15.7.3-.2 60.9-196.4 61.8-200.3.4-1.2.2-2.2-.2-2.1-.5 0-16.9 8.6-36.4 19z"/><path d="M385.5 190.7c-4.4 3.1-29.7 20-56.3 37.8L281 260.7l21.5 28.6c11.9 15.8 21.9 28.7 22.3 28.7.5 0 2.9-10.8 5.4-24l4.7-23.9 29.6-42.2c16.3-23.1 29.5-42.2 29.3-42.4-.2-.2-3.9 2.2-8.3 5.2zM15.9 187c-.9.5-2.2 2.3-2.9 4-1.5 3.5 0 8.4 3.1 10 1 .6 8.7 1 17.2 1 14.8 0 15.4-.1 17.5-2.3 3.2-3.4 3-8.9-.4-11.6-2.4-1.9-4-2.1-17.8-2.1-8.3 0-15.8.5-16.7 1zM348.6 284.2c-1.2 3.6-5.6 29.1-5.2 29.6.3.3 5.4-4.1 11.3-9.8 6-5.7 12.3-11.8 14.1-13.5l3.4-3.2-8.9-1.7c-4.8-.9-10-1.9-11.6-2.2-1.7-.4-2.9-.1-3.1.8zM78.8 308.7c-5.5 5.4-10.6 11-11.4 12.5-1.8 3.5-.9 7.2 2.3 9.8 4.8 3.8 6.8 2.8 19-9.2 9.9-9.8 11.3-11.6 11.3-14.5 0-4.4-3.8-8.3-8-8.3-2.6 0-4.8 1.7-13.2 9.7zM324.1 335.9c-2.2 2.2-4.9 13-5.7 23.4-1.6 18.4 4 32.7 19.1 48.6 5.8 6.1 9.5 10.9 9.5 12.1 0 2.8-1 4.6-6.9 12.4-8.4 11.1-8.8 19.4-1.4 30.3 3.5 5.3 8.4 9.7 16.1 14.8 2.3 1.5 4.1 2.9 3.9 3.1-.1.2-9 .8-19.7 1.4-22.4 1.2-40.9 3.7-58.9 8-24.8 5.8-39.7 5.9-52.6.2-5-2.2-7.8-2.6-17.2-3-7.8-.2-11.3 0-11.3.8 0 .6 2 3.3 4.5 5.9 5.8 6.2 16 11.3 29 14.6 14.8 3.8 22.7 3.3 51.4-3 20.5-4.4 33.7-6.2 56.1-7.4 30.6-1.7 34.3-2.4 38.3-6.8 2.1-2.4 3.2-8.1 2.3-11.7-.9-3.6-6.2-8.6-16.5-15.5-15.9-10.7-17.4-14.6-9.1-24.7 5.7-6.9 8-12.6 8-19.3-.1-7-3.1-12.4-13-22.6-9.8-10.2-13.2-16.1-15.1-26.1-1.2-6.5-.6-15.9 1.6-24.6 1.6-5.8 1.3-8-1.3-11.1-2.1-2.4-8.6-2.3-11.1.2zM145.8 368.6c-5.6 3-7.4 11.2-3.8 17.1 3.6 6 1.4 5.8 63.2 5.8 55.7 0 56.7 0 59.5-2.1 1.5-1.1 3.7-3.8 4.7-5.9 1.7-3.5 1.8-4.2.5-7.9-.9-2.5-2.7-4.9-4.8-6.3l-3.4-2.3h-56.6c-48.1.1-57 .3-59.3 1.6z"/><path d="M145.8 409.6c-5.3 2.8-7.3 10.5-4.3 16.4 3.2 6.2 1.8 6.1 64.9 5.8l57.4-.3 2.6-2.4c5.7-5.4 5.5-13.5-.5-18.6l-3.1-2.5h-57.1c-48.6.1-57.6.3-59.9 1.6zM175 455.7c0 6 .5 8.6 2 11 3.5 5.8 5.6 6.3 28.8 6.3 20.1 0 21-.1 24.3-2.3 4.2-2.8 6.1-8.1 5.7-16.2l-.3-6-30.2-.3-30.3-.2v7.7z"/></g></svg>