<svg xmlns="http://www.w3.org/2000/svg" version="1.0" viewBox="0 0 512 512"><path d="M250.8 33.7c-.9 1-5.1 8.8-9.4 17.5l-7.8 15.6-17.5 2.3c-16.3 2.2-17.8 2.5-20.3 5-5.2 5.1-4.3 6.9 10.9 21.5l13.7 13.1-3.3 18.3-3.3 18.2 1.9 2.7c4.1 5.4 5.5 5.2 22.9-4 8.7-4.6 16.4-8.5 17-8.7.5-.1 8.3 3.6 17.2 8.4 17.4 9.2 19.1 9.6 23.2 5.2 2.6-2.8 2.6-2.9-1.1-23l-3.1-17 13.6-13.1c14.9-14.4 15.8-16.1 11.3-21.2-2.1-2.5-3.6-2.9-20.4-5.3l-18.2-2.7-7.6-15.5c-4.2-8.5-8.4-16.3-9.2-17.3-1-1-3-1.7-5.3-1.7s-4.3.7-5.2 1.7zm10.7 35.4c2.8 5.6 5.9 10.7 7 11.5 1.1.7 6.3 1.8 11.5 2.5 14.7 1.8 14.5 1.4 4.7 10.2-4.7 4.3-8.8 8.9-9.1 10.2-.4 1.4.3 7.5 1.4 13.7 1.1 6.1 1.9 11.2 1.7 11.3-.1.1-4.5-2.1-9.7-5.1-5.4-3-10.8-5.3-12.6-5.3-1.9-.1-6.8 1.9-13 5.3-5.4 2.9-10 5.2-10.1 5.1-.2-.1.6-5.3 1.8-11.6 1.1-6.2 1.8-12.3 1.5-13.5-.3-1.2-4.4-5.7-9.1-9.9-4.7-4.3-8.4-8-8.1-8.2.2-.2 5.3-1.1 11.2-1.9 6-.9 11.9-2.2 13.1-2.9 1.2-.8 4.3-6 6.9-11.5 2.6-5.5 5-10 5.3-10 .4 0 2.9 4.6 5.6 10.1zM81.6 105.2c-1 .6-5.4 8.4-9.7 17.4-7.5 15.5-8 16.3-11.1 16.9-1.8.3-9.8 1.4-17.7 2.5-8 1.1-15.5 2.7-16.7 3.5-2.6 1.7-3.9 5.3-2.9 8.4.3 1.1 6.5 7.7 13.7 14.6l13.1 12.6-3.2 17.7c-1.7 9.7-3.1 18.3-3.1 19 0 2.3 4.8 6.2 7.6 6.2 1.5 0 9.8-3.8 18.5-8.5l15.8-8.5 15.9 8.5c18.7 10.1 21.6 10.6 24.8 4.4 1.3-2.7 1.2-4.3-1.6-19.3-1.6-9-3-17.1-3-18.1 0-1.1 5.6-7.2 12.9-14.1 7.8-7.5 13-13.3 13.3-14.8.7-3.6-1.7-8.4-4.5-9.1-1.4-.4-9.8-1.6-18.8-2.8l-16.4-2.2-8.6-16.8c-4.7-9.3-9.2-17.3-10-17.8-1.9-1.2-6-1.1-8.3.3zm9.8 36.6c3.6 7.2 6.2 11.2 7.8 11.9 1.3.6 7.2 1.6 13.1 2.3l10.8 1.3-9.1 9.2c-10.2 10.5-10 9.5-7 24.5 1 5.2 1.7 9.6 1.5 9.8-.2.2-5-2.2-10.7-5.2-5.8-3.1-11.1-5.6-11.9-5.6-.8 0-6.3 2.5-12.2 5.5-5.9 3.1-10.7 5.4-10.7 5.2 0-.2.9-5.3 2-11.3 1.1-6 2-11.5 2-12.3 0-.7-4.1-5.5-9-10.6l-9.1-9.2 11.2-1.4c13.9-1.6 14.9-2.4 20.8-15.3 2.4-5.3 4.5-9.6 4.7-9.6.2 0 2.8 4.9 5.8 10.8zM421.8 105.1c-1 .5-5.3 8.3-9.7 17.4-7.6 15.7-8 16.4-11.2 17-1.9.3-9.8 1.4-17.7 2.5-7.8 1.1-15.1 2.4-16.1 2.9-2.7 1.5-4.4 6.2-3.2 9.3.5 1.3 6.6 7.8 13.5 14.3 7.8 7.4 12.6 12.6 12.6 13.8 0 1.1-1.4 9.3-3 18.3-2.8 15-2.9 16.6-1.6 19.3 3.2 6.2 6.2 5.7 25-4.4l15.9-8.5 15.7 8.5c8.7 4.7 17 8.5 18.4 8.5 3.1 0 7.6-4 7.6-6.7 0-1-1.4-9.4-3.1-18.7l-3-16.9 13.5-13.7c13.8-13.8 14.9-15.7 12.6-20-1.7-3.1-3.8-3.8-20.1-6-8.5-1.1-16.4-2.3-17.7-2.5-1.8-.4-3.9-4-10.1-16.9-4.7-9.9-8.7-16.8-9.9-17.5-2.5-1.4-6.1-1.4-8.4 0zm15.8 47c1.6 1.6 4.8 2.4 13.8 3.7l11.7 1.7-8.2 8c-4.4 4.4-8.5 9-9 10.2-.5 1.5-.1 6.1 1.2 13.4 1.1 6.1 1.9 11.3 1.6 11.5-.2.2-4.5-1.8-9.6-4.6-5-2.7-10.3-5.3-11.6-5.6-1.8-.4-5.3.9-13.1 5-5.9 3.1-10.8 5.5-11 5.3-.1-.1.6-4.7 1.6-10.2 1.1-5.5 1.9-11.1 2-12.4 0-1.7-2.6-5.1-9-11.6l-9.1-9.2 10.8-1.3c5.9-.7 11.8-1.7 13.1-2.3 1.6-.7 4.2-4.8 8-12.2l5.5-11 4.7 9.8c2.5 5.3 5.5 10.7 6.6 11.8zM234.4 180.6c-54.5 9.1-97.4 53.5-105.4 108.9-3.9 27.5 2.6 59.4 16.9 82.9l4.1 6.9-19.5 33.8C116.6 437.2 111 447.8 111 450c0 3 3.7 8 5.9 8 .5 0 9.6-1.3 20.1-3 10.5-1.6 19.9-3 20.8-3 1 0 5.6 4.9 10.6 11.1 13 16.1 13.8 16.9 17.8 16.9 1.9 0 4.1-.6 5-1.2.9-.7 7.8-12 15.3-25.1 10.9-18.8 14.1-23.7 15.4-23.2 14 5.4 54.2 5.4 68.2 0 1.3-.5 4.5 4.4 15.4 23.2 7.5 13.1 14.4 24.4 15.3 25 .9.7 3.1 1.3 5 1.3 4 0 4.8-.8 17.8-16.9 6-7.5 9.5-11.1 10.9-11.1 1.1 0 10.3 1.4 20.5 3s19.1 3 19.8 3c2.5 0 6.2-4.8 6.2-8 0-2.2-5.7-12.9-19.5-36.9L362 379.3l4.1-6.9c17.3-28.3 22.4-64.5 13.8-97.9-12.3-48.3-53.6-86-102.9-94-11.5-1.8-31.5-1.8-42.6.1zm40.8 15.9c22.1 3.8 41.7 13.8 58.1 29.4 46.6 44.5 46.4 118.4-.5 162.6-44.6 42.2-115.7 40.2-158-4.3-35.8-37.8-40.9-95.4-12.3-139.2 9.3-14.2 27.5-30.4 43-38.2 7.6-3.9 22-8.7 30.5-10.3 10.1-1.8 28.8-1.8 39.2 0zM184 412.8c4.7 3.2 11.1 7.1 14.2 8.7 3.2 1.7 5.8 3.3 5.8 3.7 0 1.1-18.4 32.8-19 32.8-.3-.1-4.5-5-9.3-11-5.4-6.7-9.7-11.2-11.2-11.6-1.3-.3-8.3.4-15.4 1.6-7.2 1.2-13.5 2-14 1.8-.4-.1 5.1-10.5 12.3-22.9l13-22.7 7.6 7c4.1 3.8 11.3 9.5 16 12.6zm180.8 3.4c7.2 12.6 12.6 22.8 12 22.8-.6 0-7.1-1-14.5-2.1-9.9-1.6-14-1.9-15.7-1.1-1.2.5-6.1 5.7-10.7 11.5s-8.7 10.6-9 10.6c-.3.1-4.8-7.4-10.1-16.5l-9.5-16.6 7.5-4c10.4-5.4 20.3-12.4 29.2-20.7 4.1-3.8 7.6-6.8 7.6-6.7.1 0 6 10.3 13.2 22.8z"/><path d="M241.7 229.5c-32.5 6.2-57.6 31.8-63.3 64.6-2.8 16.3-.5 31.9 7.1 47.4 8 16.3 19.7 28 36 36 12.2 6 20.4 7.9 34.5 7.9 14.1 0 22.3-1.9 34.5-7.9 16.3-8 28-19.7 36-36 6-12.2 7.9-20.4 7.9-34.5 0-14.1-1.9-22.3-7.9-34.5-8-16.3-19.7-28-36-36-4.9-2.4-11.9-5.1-15.5-6-9.7-2.3-24.1-2.7-33.3-1zm26 16c22.6 4.3 42.1 22.1 48.7 44.4 8.2 28.1-5.9 60-32.4 73-25.2 12.3-52.3 7.9-72-11.9-12.8-12.7-18.4-26.1-18.4-44 0-16.9 5.5-30.8 17.1-43 15-15.9 35.5-22.6 57-18.5z"/><path d="m263.5 303.1-20.2 20-5.8-10.1c-6-10.6-7.5-12-12.4-12-3.5 0-7.1 3.9-7.1 7.7 0 3 16.4 31.8 19.3 33.8 4.9 3.4 5.9 2.7 31.4-22.8 13.4-13.3 24.6-25.2 24.9-26.5 1.3-5.1-2.8-10.2-8.2-10.2-1 0-10.9 9-21.9 20.1z"/></svg>