<svg xmlns="http://www.w3.org/2000/svg" version="1.0" viewBox="0 0 512 512"><path d="M248.5.9c-8.6 2.3-16.8 8.5-20.7 15.8-7.2 13.3-4.9 29 5.9 39.6l4.6 4.5-2.6 4.4C229 76.7 212 88.7 197 92.5c-7.5 2-22.6 2.3-28.7.6-3.9-1.1-4.2-1.4-5.2-6.2-1.4-6.2-2.3-8-6.9-13.1-4.9-5.4-10.4-8-18.3-8.6-10.7-.7-20.2 4.4-25.3 13.8-8.6 15.8-.8 34.2 16.8 39.5l3.8 1.1 19.4 45.2 19.3 45.1.3 24 .3 24 3 3.1c1.6 1.6 4.6 3.5 6.7 4 2.4.7 29.5 1 76.5.8l72.8-.3 3.3-2.3c5.5-4 5.7-4.7 6.1-30.7l.3-24 18.7-43.5 18.7-43.5 5.5-1.8c20.6-6.5 26.2-33 9.9-46.9-4.3-3.7-12.2-6.8-17.4-6.8-12.5 0-24.8 10.1-27.1 22.3-.8 4.1-1.1 4.3-10.9 5.6-22.3 3.2-48-8.3-60.5-27l-4-6 4.4-4c9.5-8.8 13-23.3 8.5-35.3C282.4 9.5 270.9 1 258.2.4c-3.7-.2-8 0-9.7.5zM266 93.4c10.7 11.3 28.1 21 45.8 25.3 7.9 1.9 29.7 2.3 35.5.6 3.4-1 3.7-1 3.3.5-.3.9-7.5 17.9-16 37.7l-15.5 36-62.8.2-62.8.3-15.8-37.1c-8.7-20.4-15.6-37.3-15.4-37.6.3-.2 4.1.1 8.4.7 28.1 4.3 63.1-9.6 80.9-32.2l4.7-6.1 2.1 2.9c1.1 1.6 4.5 5.5 7.6 8.8zm48 136.1v9.5H198v-19h116v9.5zM62.7 189.8c-2 1.2-5.2 6.4-11 17.7l-8.2 16L26 226c-11.9 1.7-18.5 3.1-20.4 4.3-4.7 3.1-7 11.1-4.5 16 .6 1.2 6.7 7.6 13.6 14.2l12.6 12.1-2.7 15c-1.4 8.2-2.6 16.8-2.6 19 0 6.7 6 12.4 13 12.4 2 0 9.2-3.1 19-8.1l15.9-8.1 15.8 8.1c16.9 8.7 20.4 9.6 25.8 6.2 1.7-1 3.9-3.6 4.9-5.9 1.8-4 1.8-4.2-1.1-21.2l-3-17.1 13.3-13.2 13.4-13.2v-5.4c0-4.8-.3-5.7-3.7-9.1l-3.8-3.7-17.3-2.3c-9.5-1.3-17.6-2.6-18.1-2.9-.5-.4-4.3-7.5-8.5-15.9-6-12-8.3-15.7-10.9-17.2-3.9-2.4-10.2-2.5-14-.2zm10.4 46.4c5.1 10.3 7 11.6 19.2 13.3l4.9.6-5.6 5.8c-7.2 7.7-7.5 8.8-4.9 22.9l.6 3.4-7.1-3.6c-4-2-8.6-3.6-10.4-3.6-1.7 0-6.2 1.6-9.9 3.5-3.8 1.9-7 3.5-7.2 3.5-.2 0 .2-3.2.8-7.2 1.7-9.6.7-12.6-6.2-19.2l-5.6-5.4 5.9-.7c3.2-.4 7.8-1.5 10.1-2.5 3.7-1.6 4.7-2.8 8-9.4 2.1-4.2 3.9-7.6 4-7.6.2 0 1.7 2.8 3.4 6.2zM435.3 190c-2.6 1.5-4.9 5.2-10.9 17.2-4.2 8.4-8.1 15.6-8.6 15.9-.6.4-8.7 1.7-18.2 2.9l-17.1 2.3-3.7 3.7c-3.5 3.4-3.8 4.3-3.8 9.1v5.4l13.4 13.1 13.3 13.2-3 17.4c-2.9 17-2.9 17.5-1.2 21.1 2.1 4.4 7 7.7 11.7 7.7 2.3 0 8.5-2.6 19.2-8.1l15.8-8.1 15.8 8.1c16.2 8.4 19.9 9.4 25 6.8 3.6-1.8 7-7.4 7-11.6 0-1.9-1.2-10.3-2.6-18.5l-2.7-15 13.1-12.5c8.4-8 13.3-13.6 13.8-15.4 1.4-6.2-1.9-13.3-7.3-15.6-1.5-.6-10.2-2.1-19.3-3.4l-16.5-2.2-8.2-16c-8.9-17.4-10.9-19.5-18-19.5-2.1 0-5.3.9-7 2zm11.2 48.1c3.1 6 4.2 7.3 7.8 8.9 2.3 1 6.9 2.1 10.1 2.5l5.9.7-5.6 5.5c-6.9 6.8-7.9 9.6-6.2 19.1.6 4 1 7.2.9 7.2-.2 0-3.3-1.6-7-3.5-8.3-4.4-11.6-4.4-20.6.1l-7.1 3.6.6-3.4c2.6-14.1 2.3-15.2-4.9-22.9l-5.6-5.8 4.9-.6c12.1-1.7 14.6-3.4 19.2-13.3 1.4-2.9 2.8-5.2 3.3-5.2.4 0 2.4 3.2 4.3 7.1zM205.9 303.5c-1.4.8-3.5 2.7-4.5 4.2-1.8 2.7-1.9 6.5-2.2 96.8-.2 62.3 0 95.2.7 97.5.6 2 2.4 4.9 4.1 6.5l3.1 3 48 .3c53 .3 52 .4 55.9-6.1 1.8-2.9 2-5.1 2-23.5 0-22.3-.4-24.2-6-27.6-4-2.3-11.1-2.1-14.4.5-4.7 3.7-5.6 6.8-5.6 19.4V486h-61V328h61v20.2c0 18.4.2 20.6 2 23.5 1 1.8 3 3.9 4.4 4.8 5.4 3.6 14.2 1.6 17.6-4 1.9-3.1 2-4.9 2-33v-29.7l-3.9-3.9-3.9-3.9h-48.3c-39.8.1-48.9.3-51 1.5zM22.6 368c-1.5.5-3.7 1.7-4.8 2.7-4.9 4.4-4.8 3.2-4.8 69 0 56.8.1 62.1 1.8 65.3 3.5 7 3.1 7 55.2 7s51.7 0 55.2-7c1.7-3.2 1.8-8.5 1.8-65.5 0-59.7-.1-62.1-2-65.2-4.2-7-2.3-6.8-53.5-7-25.3-.1-47.3.2-48.9.7zm78.4 72v46H39v-92h62v46zM395.9 367.9c-4.6 1.5-6.9 3.1-8.4 6.1-1.3 2.5-1.5 11.6-1.5 65.7 0 60.5.1 62.9 2 66 3.9 6.4 3 6.3 54.7 6.3 44.6 0 46.9-.1 50-2 7.2-4.3 6.8-.3 6.8-70.5 0-58.6-.1-63.3-1.8-65.8-4.2-6.4-2.5-6.2-53.2-6.4-25.3-.1-47.2.2-48.6.6zM473 440v46h-61v-92h61v46z"/><path d="M292.5 404c-11.1 7.3-7 23.9 6.3 25.7 4.6.6 8.8-1.3 12.6-5.7 4.8-5.8 3-16-3.7-20-4.2-2.6-11.3-2.6-15.2 0z"/></svg>