<?xml version="1.0" standalone="no"?>
<!DOCTYPE svg PUBLIC "-//W3C//DTD SVG 20010904//EN"
 "http://www.w3.org/TR/2001/REC-SVG-20010904/DTD/svg10.dtd">
<svg version="1.0" xmlns="http://www.w3.org/2000/svg"
 width="260.000000pt" height="260.000000pt" viewBox="0 0 260.000000 260.000000"
 preserveAspectRatio="xMidYMid meet">
<metadata>
Created by potrace 1.14, written by Peter Selinger 2001-2017
</metadata>
<g transform="translate(0.000000,260.000000) scale(0.100000,-0.100000)"
fill="#000000" stroke="none">
<path d="M1041 1899 c-73 -32 -80 -104 -20 -211 23 -40 43 -74 44 -76 2 -3 72
34 233 124 23 13 63 36 90 50 26 15 73 42 105 60 32 19 61 34 65 34 4 0 17 8
29 18 22 16 11 17 -243 17 -225 1 -272 -2 -303 -16z"/>
<path d="M525 1898 c-57 -20 -93 -57 -129 -131 -31 -65 -143 -317 -330 -743
-36 -83 -66 -164 -66 -180 0 -46 41 -116 79 -138 32 -18 54 -20 253 -21 120 0
218 2 218 4 0 2 -15 21 -34 42 -35 38 -51 85 -44 130 3 22 7 21 60 -31 48 -47
57 -62 63 -103 6 -38 10 -45 20 -37 8 6 12 19 10 29 -5 27 35 90 83 129 l42
35 0 -30 c0 -58 -13 -93 -46 -127 -19 -19 -34 -36 -34 -38 0 -5 650 -1 654 3
2 2 -20 51 -48 109 -28 58 -83 173 -123 255 -40 83 -113 236 -164 340 -50 105
-117 244 -149 310 -61 126 -91 164 -152 189 -42 18 -118 20 -163 4z m96 -388
c0 -16 1 -59 1 -95 0 -98 -1 -105 -12 -105 -6 0 -10 45 -10 115 0 70 4 115 10
115 6 0 10 -13 11 -30z m-85 -83 c-3 -12 -5 -28 -5 -36 -2 -24 -15 -2 -17 27
-2 32 4 45 17 37 5 -3 7 -16 5 -28z m174 -1 c0 -19 -4 -38 -10 -41 -6 -4 -10
10 -10 34 0 23 5 41 10 41 6 0 10 -15 10 -34z m-140 -113 c22 -28 33 -76 28
-118 l-3 -27 -47 46 c-58 56 -75 88 -77 144 l-1 44 40 -32 c22 -17 49 -43 60
-57z m164 -24 c-16 -31 -58 -78 -98 -109 -18 -14 -19 -13 -13 37 7 67 19 89
75 140 l47 42 3 -39 c2 -22 -4 -53 -14 -71z m7 -159 c-6 -20 -34 -58 -65 -89
l-55 -54 4 57 c4 62 21 95 68 135 17 14 36 31 41 37 16 17 20 -42 7 -86z
m-203 41 c50 -51 62 -79 62 -150 l0 -36 -59 61 c-56 59 -71 91 -71 150 0 35
12 30 68 -25z m43 -233 c15 -29 26 -118 14 -118 -3 0 -26 19 -50 43 -50 47
-75 99 -75 153 l0 36 48 -42 c26 -23 54 -55 63 -72z m154 -1 c-8 -18 -38 -55
-64 -81 l-49 -49 3 57 c3 64 20 94 79 147 l41 37 3 -39 c2 -21 -4 -54 -13 -72z"/>
<path d="M1760 1880 c-40 -8 -81 -26 -165 -73 -33 -18 -105 -59 -160 -89 -55
-31 -125 -70 -155 -87 -30 -17 -81 -45 -112 -62 -32 -18 -58 -37 -58 -43 0 -5
24 -59 53 -118 37 -77 56 -107 67 -104 8 2 146 80 305 174 207 121 290 175
288 187 0 9 4 14 10 12 7 -2 36 -10 65 -18 29 -7 51 -18 49 -23 -2 -6 -12 -34
-22 -63 -14 -40 -22 -50 -31 -42 -13 11 -38 -2 -257 -133 -54 -32 -102 -58
-107 -58 -6 0 -10 -4 -10 -9 0 -5 -9 -12 -20 -16 -28 -9 -94 -75 -115 -115
-46 -88 -50 -199 -11 -285 67 -145 181 -225 321 -227 81 -1 123 12 273 84 70
33 163 77 207 98 44 21 141 67 215 102 74 36 152 73 172 82 l38 18 -33 46
c-94 133 -247 173 -389 103 -67 -33 -74 -36 -303 -170 -117 -68 -149 -91 -147
-105 2 -12 -1 -17 -10 -14 -7 3 -39 11 -70 18 -32 7 -58 16 -58 20 0 13 49
144 49 133 2 -26 38 -10 217 98 196 117 242 158 276 243 56 143 -3 313 -137
396 -64 39 -157 55 -235 40z"/>
<path d="M2500 927 c-52 -24 -189 -86 -304 -138 l-210 -94 213 -3 c119 -1 229
2 249 8 86 23 147 109 151 213 1 31 1 57 -1 57 -2 0 -46 -19 -98 -43z"/>
</g>
</svg>
